<mxfile host="app.diagrams.net" modified="2023-06-02T16:09:07.316Z" agent="Mozilla/5.0 (Windows NT 10.0; Win64; x64; rv:109.0) Gecko/20100101 Firefox/113.0" etag="is-DCvXVcEoma81NWU8a" version="21.3.7" type="device">
  <diagram id="JZ3UeF80VItJE42-G8gL" name="Page-1">
    <mxGraphModel dx="2029" dy="688" grid="1" gridSize="10" guides="1" tooltips="1" connect="1" arrows="1" fold="1" page="1" pageScale="1" pageWidth="827" pageHeight="1169" math="1" shadow="0">
      <root>
        <mxCell id="0" />
        <mxCell id="1" parent="0" />
        <mxCell id="bDf_QddjwAsiFpH7pg2h-1" value="" style="rounded=1;whiteSpace=wrap;html=1;fillColor=#dae8fc;strokeColor=#6c8ebf;" parent="1" vertex="1">
          <mxGeometry x="80" y="900.5" width="302" height="60" as="geometry" />
        </mxCell>
        <mxCell id="bDf_QddjwAsiFpH7pg2h-7" value="" style="group" parent="1" vertex="1" connectable="0">
          <mxGeometry x="228" y="880.5" width="30" height="80" as="geometry" />
        </mxCell>
        <mxCell id="bDf_QddjwAsiFpH7pg2h-8" value="" style="endArrow=none;html=1;rounded=0;labelPosition=left;verticalLabelPosition=top;align=right;verticalAlign=bottom;" parent="bDf_QddjwAsiFpH7pg2h-7" edge="1">
          <mxGeometry width="50" height="50" relative="1" as="geometry">
            <mxPoint x="14" y="80" as="sourcePoint" />
            <mxPoint x="14" y="20" as="targetPoint" />
          </mxGeometry>
        </mxCell>
        <mxCell id="bDf_QddjwAsiFpH7pg2h-9" value="`c_2`" style="text;html=1;strokeColor=none;fillColor=none;align=center;verticalAlign=middle;whiteSpace=wrap;rounded=0;" parent="bDf_QddjwAsiFpH7pg2h-7" vertex="1">
          <mxGeometry width="30" height="10" as="geometry" />
        </mxCell>
        <mxCell id="bDf_QddjwAsiFpH7pg2h-10" value="" style="group" parent="1" vertex="1" connectable="0">
          <mxGeometry x="269" y="880.5" width="30" height="80" as="geometry" />
        </mxCell>
        <mxCell id="bDf_QddjwAsiFpH7pg2h-11" value="" style="endArrow=none;html=1;rounded=0;labelPosition=left;verticalLabelPosition=top;align=right;verticalAlign=bottom;" parent="bDf_QddjwAsiFpH7pg2h-10" edge="1">
          <mxGeometry width="50" height="50" relative="1" as="geometry">
            <mxPoint x="14" y="80" as="sourcePoint" />
            <mxPoint x="14" y="20" as="targetPoint" />
          </mxGeometry>
        </mxCell>
        <mxCell id="bDf_QddjwAsiFpH7pg2h-12" value="`c_3`" style="text;html=1;strokeColor=none;fillColor=none;align=center;verticalAlign=middle;whiteSpace=wrap;rounded=0;" parent="bDf_QddjwAsiFpH7pg2h-10" vertex="1">
          <mxGeometry width="30" height="10" as="geometry" />
        </mxCell>
        <mxCell id="bDf_QddjwAsiFpH7pg2h-13" value="" style="group" parent="1" vertex="1" connectable="0">
          <mxGeometry x="96" y="880.5" width="30" height="80" as="geometry" />
        </mxCell>
        <mxCell id="bDf_QddjwAsiFpH7pg2h-14" value="" style="endArrow=none;html=1;rounded=0;labelPosition=left;verticalLabelPosition=top;align=right;verticalAlign=bottom;" parent="bDf_QddjwAsiFpH7pg2h-13" edge="1">
          <mxGeometry width="50" height="50" relative="1" as="geometry">
            <mxPoint x="14" y="80" as="sourcePoint" />
            <mxPoint x="14" y="20" as="targetPoint" />
          </mxGeometry>
        </mxCell>
        <mxCell id="bDf_QddjwAsiFpH7pg2h-15" value="`c_3`" style="text;html=1;strokeColor=none;fillColor=none;align=center;verticalAlign=middle;whiteSpace=wrap;rounded=0;" parent="bDf_QddjwAsiFpH7pg2h-13" vertex="1">
          <mxGeometry width="30" height="10" as="geometry" />
        </mxCell>
        <mxCell id="bDf_QddjwAsiFpH7pg2h-16" value="" style="group" parent="1" vertex="1" connectable="0">
          <mxGeometry x="335" y="880.5" width="30" height="80" as="geometry" />
        </mxCell>
        <mxCell id="bDf_QddjwAsiFpH7pg2h-17" value="" style="endArrow=none;html=1;rounded=0;labelPosition=left;verticalLabelPosition=top;align=right;verticalAlign=bottom;" parent="bDf_QddjwAsiFpH7pg2h-16" edge="1">
          <mxGeometry width="50" height="50" relative="1" as="geometry">
            <mxPoint x="14" y="80" as="sourcePoint" />
            <mxPoint x="14" y="20" as="targetPoint" />
          </mxGeometry>
        </mxCell>
        <mxCell id="bDf_QddjwAsiFpH7pg2h-18" value="`c_4`" style="text;html=1;strokeColor=none;fillColor=none;align=center;verticalAlign=middle;whiteSpace=wrap;rounded=0;" parent="bDf_QddjwAsiFpH7pg2h-16" vertex="1">
          <mxGeometry width="30" height="10" as="geometry" />
        </mxCell>
        <mxCell id="bDf_QddjwAsiFpH7pg2h-19" value="" style="group" parent="1" vertex="1" connectable="0">
          <mxGeometry x="152" y="881.5" width="30" height="80" as="geometry" />
        </mxCell>
        <mxCell id="bDf_QddjwAsiFpH7pg2h-20" value="" style="endArrow=none;html=1;rounded=0;labelPosition=left;verticalLabelPosition=top;align=right;verticalAlign=bottom;" parent="bDf_QddjwAsiFpH7pg2h-19" edge="1">
          <mxGeometry width="50" height="50" relative="1" as="geometry">
            <mxPoint x="14" y="80" as="sourcePoint" />
            <mxPoint x="14" y="20" as="targetPoint" />
          </mxGeometry>
        </mxCell>
        <mxCell id="bDf_QddjwAsiFpH7pg2h-21" value="`c_1`" style="text;html=1;strokeColor=none;fillColor=none;align=center;verticalAlign=middle;whiteSpace=wrap;rounded=0;" parent="bDf_QddjwAsiFpH7pg2h-19" vertex="1">
          <mxGeometry width="30" height="10" as="geometry" />
        </mxCell>
        <mxCell id="bDf_QddjwAsiFpH7pg2h-24" value="&lt;div&gt;Patient 1 &lt;br&gt;&lt;/div&gt;&lt;div&gt;event&lt;/div&gt;&lt;div&gt;sequence&lt;/div&gt;" style="text;html=1;strokeColor=none;fillColor=none;align=center;verticalAlign=middle;whiteSpace=wrap;rounded=0;" parent="1" vertex="1">
          <mxGeometry x="-30" y="915.5" width="140" height="30" as="geometry" />
        </mxCell>
        <mxCell id="bDf_QddjwAsiFpH7pg2h-25" value="" style="endArrow=classic;html=1;rounded=0;fillColor=#dae8fc;strokeColor=#6c8ebf;exitX=0.78;exitY=1.153;exitDx=0;exitDy=0;exitPerimeter=0;" parent="1" source="bDf_QddjwAsiFpH7pg2h-24" edge="1">
          <mxGeometry width="50" height="50" relative="1" as="geometry">
            <mxPoint x="70" y="951" as="sourcePoint" />
            <mxPoint x="407" y="950.5" as="targetPoint" />
          </mxGeometry>
        </mxCell>
        <mxCell id="bDf_QddjwAsiFpH7pg2h-26" value="Time" style="edgeLabel;html=1;align=center;verticalAlign=middle;resizable=0;points=[];fontColor=#7EA6E0;container=1;fontStyle=1" parent="bDf_QddjwAsiFpH7pg2h-25" vertex="1" connectable="0">
          <mxGeometry x="0.9623" y="4" relative="1" as="geometry">
            <mxPoint y="15" as="offset" />
          </mxGeometry>
        </mxCell>
        <mxCell id="bDf_QddjwAsiFpH7pg2h-28" value="`C(1,c_1) \ =&amp;nbsp; 1` " style="text;html=1;strokeColor=none;fillColor=none;align=center;verticalAlign=middle;whiteSpace=wrap;rounded=0;fontColor=#000000;fontStyle=0" parent="1" vertex="1">
          <mxGeometry x="421" y="880" width="95" height="30" as="geometry" />
        </mxCell>
        <mxCell id="bDf_QddjwAsiFpH7pg2h-29" value="`C(1,c_2) \ =&amp;nbsp; 1` " style="text;html=1;strokeColor=none;fillColor=none;align=center;verticalAlign=middle;whiteSpace=wrap;rounded=0;fontColor=#000000;fontStyle=0" parent="1" vertex="1">
          <mxGeometry x="421" y="910" width="95" height="30" as="geometry" />
        </mxCell>
        <mxCell id="bDf_QddjwAsiFpH7pg2h-149" style="rounded=0;orthogonalLoop=1;jettySize=auto;html=1;exitX=1;exitY=0;exitDx=0;exitDy=0;entryX=0;entryY=0.5;entryDx=0;entryDy=0;" parent="1" source="bDf_QddjwAsiFpH7pg2h-30" target="bDf_QddjwAsiFpH7pg2h-45" edge="1">
          <mxGeometry relative="1" as="geometry" />
        </mxCell>
        <mxCell id="bDf_QddjwAsiFpH7pg2h-30" value="`C(1,c_3) \ =&amp;nbsp; 2` " style="text;html=1;strokeColor=none;fillColor=none;align=center;verticalAlign=middle;whiteSpace=wrap;rounded=0;fontColor=#000000;fontStyle=0" parent="1" vertex="1">
          <mxGeometry x="421" y="940" width="95" height="30" as="geometry" />
        </mxCell>
        <mxCell id="bDf_QddjwAsiFpH7pg2h-31" value="`C(1,c_4) \ =&amp;nbsp; 0` " style="text;html=1;strokeColor=none;fillColor=none;align=center;verticalAlign=middle;whiteSpace=wrap;rounded=0;fontColor=#000000;fontStyle=0" parent="1" vertex="1">
          <mxGeometry x="421" y="971" width="95" height="30" as="geometry" />
        </mxCell>
        <mxCell id="bDf_QddjwAsiFpH7pg2h-44" value="" style="shape=table;html=1;whiteSpace=wrap;startSize=0;container=1;collapsible=0;childLayout=tableLayout;rounded=0;fillColor=#dae8fc;strokeColor=#6c8ebf;" parent="1" vertex="1">
          <mxGeometry x="610" y="860" width="130" height="180" as="geometry" />
        </mxCell>
        <mxCell id="bDf_QddjwAsiFpH7pg2h-45" value="" style="shape=partialRectangle;html=1;whiteSpace=wrap;collapsible=0;dropTarget=0;pointerEvents=0;fillColor=none;top=0;left=0;bottom=0;right=0;points=[[0,0.5],[1,0.5]];portConstraint=eastwest;" parent="bDf_QddjwAsiFpH7pg2h-44" vertex="1">
          <mxGeometry width="130" height="60" as="geometry" />
        </mxCell>
        <mxCell id="bDf_QddjwAsiFpH7pg2h-46" value="1" style="shape=partialRectangle;html=1;whiteSpace=wrap;connectable=0;fillColor=none;top=0;left=0;bottom=0;right=0;overflow=hidden;strokeWidth=11;fontStyle=1" parent="bDf_QddjwAsiFpH7pg2h-45" vertex="1">
          <mxGeometry width="33" height="60" as="geometry">
            <mxRectangle width="33" height="60" as="alternateBounds" />
          </mxGeometry>
        </mxCell>
        <mxCell id="bDf_QddjwAsiFpH7pg2h-47" value="1" style="shape=partialRectangle;html=1;whiteSpace=wrap;connectable=0;fillColor=none;top=0;left=0;bottom=0;right=0;overflow=hidden;strokeWidth=11;fontStyle=1" parent="bDf_QddjwAsiFpH7pg2h-45" vertex="1">
          <mxGeometry x="33" width="32" height="60" as="geometry">
            <mxRectangle width="32" height="60" as="alternateBounds" />
          </mxGeometry>
        </mxCell>
        <mxCell id="bDf_QddjwAsiFpH7pg2h-48" value="3" style="shape=partialRectangle;html=1;whiteSpace=wrap;connectable=0;fillColor=none;top=0;left=0;bottom=0;right=0;overflow=hidden;strokeWidth=11;fontStyle=1" parent="bDf_QddjwAsiFpH7pg2h-45" vertex="1">
          <mxGeometry x="65" width="33" height="60" as="geometry">
            <mxRectangle width="33" height="60" as="alternateBounds" />
          </mxGeometry>
        </mxCell>
        <mxCell id="bDf_QddjwAsiFpH7pg2h-49" value="0" style="shape=partialRectangle;html=1;whiteSpace=wrap;connectable=0;fillColor=none;top=0;left=0;bottom=0;right=0;overflow=hidden;strokeWidth=11;fontStyle=1" parent="bDf_QddjwAsiFpH7pg2h-45" vertex="1">
          <mxGeometry x="98" width="32" height="60" as="geometry">
            <mxRectangle width="32" height="60" as="alternateBounds" />
          </mxGeometry>
        </mxCell>
        <mxCell id="bDf_QddjwAsiFpH7pg2h-70" style="shape=partialRectangle;html=1;whiteSpace=wrap;collapsible=0;dropTarget=0;pointerEvents=0;fillColor=none;top=0;left=0;bottom=0;right=0;points=[[0,0.5],[1,0.5]];portConstraint=eastwest;" parent="bDf_QddjwAsiFpH7pg2h-44" vertex="1">
          <mxGeometry y="60" width="130" height="40" as="geometry" />
        </mxCell>
        <mxCell id="bDf_QddjwAsiFpH7pg2h-71" value="0" style="shape=partialRectangle;html=1;whiteSpace=wrap;connectable=0;top=0;left=0;bottom=0;right=0;overflow=hidden;opacity=50;" parent="bDf_QddjwAsiFpH7pg2h-70" vertex="1">
          <mxGeometry width="33" height="40" as="geometry">
            <mxRectangle width="33" height="40" as="alternateBounds" />
          </mxGeometry>
        </mxCell>
        <mxCell id="bDf_QddjwAsiFpH7pg2h-72" value="1" style="shape=partialRectangle;html=1;whiteSpace=wrap;connectable=0;top=0;left=0;bottom=0;right=0;overflow=hidden;opacity=50;" parent="bDf_QddjwAsiFpH7pg2h-70" vertex="1">
          <mxGeometry x="33" width="32" height="40" as="geometry">
            <mxRectangle width="32" height="40" as="alternateBounds" />
          </mxGeometry>
        </mxCell>
        <mxCell id="bDf_QddjwAsiFpH7pg2h-73" value="2" style="shape=partialRectangle;html=1;whiteSpace=wrap;connectable=0;top=0;left=0;bottom=0;right=0;overflow=hidden;opacity=50;" parent="bDf_QddjwAsiFpH7pg2h-70" vertex="1">
          <mxGeometry x="65" width="33" height="40" as="geometry">
            <mxRectangle width="33" height="40" as="alternateBounds" />
          </mxGeometry>
        </mxCell>
        <mxCell id="bDf_QddjwAsiFpH7pg2h-74" value="1" style="shape=partialRectangle;html=1;whiteSpace=wrap;connectable=0;top=0;left=0;bottom=0;right=0;overflow=hidden;opacity=50;" parent="bDf_QddjwAsiFpH7pg2h-70" vertex="1">
          <mxGeometry x="98" width="32" height="40" as="geometry">
            <mxRectangle width="32" height="40" as="alternateBounds" />
          </mxGeometry>
        </mxCell>
        <mxCell id="bDf_QddjwAsiFpH7pg2h-75" style="shape=partialRectangle;html=1;whiteSpace=wrap;collapsible=0;dropTarget=0;pointerEvents=0;fillColor=none;top=0;left=0;bottom=0;right=0;points=[[0,0.5],[1,0.5]];portConstraint=eastwest;" parent="bDf_QddjwAsiFpH7pg2h-44" vertex="1">
          <mxGeometry y="100" width="130" height="40" as="geometry" />
        </mxCell>
        <mxCell id="bDf_QddjwAsiFpH7pg2h-76" value="1" style="shape=partialRectangle;html=1;whiteSpace=wrap;connectable=0;top=0;left=0;bottom=0;right=0;overflow=hidden;opacity=50;" parent="bDf_QddjwAsiFpH7pg2h-75" vertex="1">
          <mxGeometry width="33" height="40" as="geometry">
            <mxRectangle width="33" height="40" as="alternateBounds" />
          </mxGeometry>
        </mxCell>
        <mxCell id="bDf_QddjwAsiFpH7pg2h-77" value="0" style="shape=partialRectangle;html=1;whiteSpace=wrap;connectable=0;top=0;left=0;bottom=0;right=0;overflow=hidden;opacity=50;" parent="bDf_QddjwAsiFpH7pg2h-75" vertex="1">
          <mxGeometry x="33" width="32" height="40" as="geometry">
            <mxRectangle width="32" height="40" as="alternateBounds" />
          </mxGeometry>
        </mxCell>
        <mxCell id="bDf_QddjwAsiFpH7pg2h-78" value="1" style="shape=partialRectangle;html=1;whiteSpace=wrap;connectable=0;top=0;left=0;bottom=0;right=0;overflow=hidden;opacity=50;" parent="bDf_QddjwAsiFpH7pg2h-75" vertex="1">
          <mxGeometry x="65" width="33" height="40" as="geometry">
            <mxRectangle width="33" height="40" as="alternateBounds" />
          </mxGeometry>
        </mxCell>
        <mxCell id="bDf_QddjwAsiFpH7pg2h-79" value="0" style="shape=partialRectangle;html=1;whiteSpace=wrap;connectable=0;top=0;left=0;bottom=0;right=0;overflow=hidden;opacity=50;" parent="bDf_QddjwAsiFpH7pg2h-75" vertex="1">
          <mxGeometry x="98" width="32" height="40" as="geometry">
            <mxRectangle width="32" height="40" as="alternateBounds" />
          </mxGeometry>
        </mxCell>
        <mxCell id="bDf_QddjwAsiFpH7pg2h-80" style="shape=partialRectangle;html=1;whiteSpace=wrap;collapsible=0;dropTarget=0;pointerEvents=0;fillColor=none;top=0;left=0;bottom=0;right=0;points=[[0,0.5],[1,0.5]];portConstraint=eastwest;" parent="bDf_QddjwAsiFpH7pg2h-44" vertex="1">
          <mxGeometry y="140" width="130" height="40" as="geometry" />
        </mxCell>
        <mxCell id="bDf_QddjwAsiFpH7pg2h-81" value="..." style="shape=partialRectangle;html=1;whiteSpace=wrap;connectable=0;top=0;left=0;bottom=0;right=0;overflow=hidden;opacity=50;" parent="bDf_QddjwAsiFpH7pg2h-80" vertex="1">
          <mxGeometry width="33" height="40" as="geometry">
            <mxRectangle width="33" height="40" as="alternateBounds" />
          </mxGeometry>
        </mxCell>
        <mxCell id="bDf_QddjwAsiFpH7pg2h-82" value="..." style="shape=partialRectangle;html=1;whiteSpace=wrap;connectable=0;top=0;left=0;bottom=0;right=0;overflow=hidden;opacity=50;" parent="bDf_QddjwAsiFpH7pg2h-80" vertex="1">
          <mxGeometry x="33" width="32" height="40" as="geometry">
            <mxRectangle width="32" height="40" as="alternateBounds" />
          </mxGeometry>
        </mxCell>
        <mxCell id="bDf_QddjwAsiFpH7pg2h-83" value="..." style="shape=partialRectangle;html=1;whiteSpace=wrap;connectable=0;top=0;left=0;bottom=0;right=0;overflow=hidden;opacity=50;" parent="bDf_QddjwAsiFpH7pg2h-80" vertex="1">
          <mxGeometry x="65" width="33" height="40" as="geometry">
            <mxRectangle width="33" height="40" as="alternateBounds" />
          </mxGeometry>
        </mxCell>
        <mxCell id="bDf_QddjwAsiFpH7pg2h-84" value="..." style="shape=partialRectangle;html=1;whiteSpace=wrap;connectable=0;top=0;left=0;bottom=0;right=0;overflow=hidden;opacity=50;" parent="bDf_QddjwAsiFpH7pg2h-80" vertex="1">
          <mxGeometry x="98" width="32" height="40" as="geometry">
            <mxRectangle width="32" height="40" as="alternateBounds" />
          </mxGeometry>
        </mxCell>
        <mxCell id="bDf_QddjwAsiFpH7pg2h-90" value="V concepts" style="text;html=1;strokeColor=none;fillColor=none;align=center;verticalAlign=middle;whiteSpace=wrap;rounded=0;" parent="1" vertex="1">
          <mxGeometry x="600" y="830" width="150" height="30" as="geometry" />
        </mxCell>
        <mxCell id="bDf_QddjwAsiFpH7pg2h-92" value="N patients" style="text;html=1;strokeColor=none;fillColor=none;align=center;verticalAlign=middle;whiteSpace=wrap;rounded=0;" parent="1" vertex="1">
          <mxGeometry x="745" y="935" width="60" height="30" as="geometry" />
        </mxCell>
        <mxCell id="bDf_QddjwAsiFpH7pg2h-120" value="`C(1,c_1) \ =&amp;nbsp; exp(-{\Delta t_{1}}/\delta)` " style="text;html=1;strokeColor=none;fillColor=none;align=center;verticalAlign=middle;whiteSpace=wrap;rounded=0;fontColor=#000000;fontStyle=0" parent="1" vertex="1">
          <mxGeometry x="471" y="1090" width="95" height="30" as="geometry" />
        </mxCell>
        <mxCell id="bDf_QddjwAsiFpH7pg2h-175" style="rounded=0;orthogonalLoop=1;jettySize=auto;html=1;exitX=1;exitY=0.5;exitDx=0;exitDy=0;entryX=-0.019;entryY=0.144;entryDx=0;entryDy=0;entryPerimeter=0;" parent="1" source="bDf_QddjwAsiFpH7pg2h-121" target="bDf_QddjwAsiFpH7pg2h-124" edge="1">
          <mxGeometry relative="1" as="geometry" />
        </mxCell>
        <mxCell id="bDf_QddjwAsiFpH7pg2h-121" value="`C(1,c_2) \ =&amp;nbsp; exp(-{\Delta t_{2}}/\delta)` " style="text;html=1;strokeColor=none;fillColor=none;align=center;verticalAlign=middle;whiteSpace=wrap;rounded=0;fontColor=#000000;fontStyle=0" parent="1" vertex="1">
          <mxGeometry x="434" y="1124" width="169" height="30" as="geometry" />
        </mxCell>
        <mxCell id="bDf_QddjwAsiFpH7pg2h-122" value="`C(1,c_3) \ =&amp;nbsp; exp(-{\Delta t_{3}}/\delta) + exp(-{\Delta t_{4}}/\delta)` " style="text;html=1;strokeColor=none;fillColor=none;align=center;verticalAlign=middle;whiteSpace=wrap;rounded=0;fontColor=#000000;fontStyle=0" parent="1" vertex="1">
          <mxGeometry x="519" y="1160" width="95" height="30" as="geometry" />
        </mxCell>
        <mxCell id="bDf_QddjwAsiFpH7pg2h-123" value="`C(1,c_4) \ =&amp;nbsp; 0` " style="text;html=1;strokeColor=none;fillColor=none;align=center;verticalAlign=middle;whiteSpace=wrap;rounded=0;fontColor=#000000;fontStyle=0" parent="1" vertex="1">
          <mxGeometry x="431" y="1199" width="95" height="30" as="geometry" />
        </mxCell>
        <mxCell id="bDf_QddjwAsiFpH7pg2h-124" value="" style="shape=table;html=1;whiteSpace=wrap;startSize=0;container=1;collapsible=0;childLayout=tableLayout;rounded=0;fillColor=#dae8fc;strokeColor=#6c8ebf;" parent="1" vertex="1">
          <mxGeometry x="710" y="1070" width="130" height="180" as="geometry" />
        </mxCell>
        <mxCell id="bDf_QddjwAsiFpH7pg2h-125" value="" style="shape=partialRectangle;html=1;whiteSpace=wrap;collapsible=0;dropTarget=0;pointerEvents=0;fillColor=none;top=0;left=0;bottom=0;right=0;points=[[0,0.5],[1,0.5]];portConstraint=eastwest;" parent="bDf_QddjwAsiFpH7pg2h-124" vertex="1">
          <mxGeometry width="130" height="60" as="geometry" />
        </mxCell>
        <mxCell id="bDf_QddjwAsiFpH7pg2h-126" value="0.02" style="shape=partialRectangle;html=1;whiteSpace=wrap;connectable=0;fillColor=none;top=0;left=0;bottom=0;right=0;overflow=hidden;strokeWidth=11;fontStyle=1" parent="bDf_QddjwAsiFpH7pg2h-125" vertex="1">
          <mxGeometry width="33" height="60" as="geometry">
            <mxRectangle width="33" height="60" as="alternateBounds" />
          </mxGeometry>
        </mxCell>
        <mxCell id="bDf_QddjwAsiFpH7pg2h-127" value="0.1" style="shape=partialRectangle;html=1;whiteSpace=wrap;connectable=0;fillColor=none;top=0;left=0;bottom=0;right=0;overflow=hidden;strokeWidth=11;fontStyle=1" parent="bDf_QddjwAsiFpH7pg2h-125" vertex="1">
          <mxGeometry x="33" width="32" height="60" as="geometry">
            <mxRectangle width="32" height="60" as="alternateBounds" />
          </mxGeometry>
        </mxCell>
        <mxCell id="bDf_QddjwAsiFpH7pg2h-128" value="0.801" style="shape=partialRectangle;html=1;whiteSpace=wrap;connectable=0;fillColor=none;top=0;left=0;bottom=0;right=0;overflow=hidden;strokeWidth=11;fontStyle=1" parent="bDf_QddjwAsiFpH7pg2h-125" vertex="1">
          <mxGeometry x="65" width="33" height="60" as="geometry">
            <mxRectangle width="33" height="60" as="alternateBounds" />
          </mxGeometry>
        </mxCell>
        <mxCell id="bDf_QddjwAsiFpH7pg2h-129" value="0" style="shape=partialRectangle;html=1;whiteSpace=wrap;connectable=0;fillColor=none;top=0;left=0;bottom=0;right=0;overflow=hidden;strokeWidth=11;fontStyle=1" parent="bDf_QddjwAsiFpH7pg2h-125" vertex="1">
          <mxGeometry x="98" width="32" height="60" as="geometry">
            <mxRectangle width="32" height="60" as="alternateBounds" />
          </mxGeometry>
        </mxCell>
        <mxCell id="bDf_QddjwAsiFpH7pg2h-130" style="shape=partialRectangle;html=1;whiteSpace=wrap;collapsible=0;dropTarget=0;pointerEvents=0;fillColor=none;top=0;left=0;bottom=0;right=0;points=[[0,0.5],[1,0.5]];portConstraint=eastwest;" parent="bDf_QddjwAsiFpH7pg2h-124" vertex="1">
          <mxGeometry y="60" width="130" height="40" as="geometry" />
        </mxCell>
        <mxCell id="bDf_QddjwAsiFpH7pg2h-131" value="0" style="shape=partialRectangle;html=1;whiteSpace=wrap;connectable=0;top=0;left=0;bottom=0;right=0;overflow=hidden;opacity=50;" parent="bDf_QddjwAsiFpH7pg2h-130" vertex="1">
          <mxGeometry width="33" height="40" as="geometry">
            <mxRectangle width="33" height="40" as="alternateBounds" />
          </mxGeometry>
        </mxCell>
        <mxCell id="bDf_QddjwAsiFpH7pg2h-132" value="0.2" style="shape=partialRectangle;html=1;whiteSpace=wrap;connectable=0;top=0;left=0;bottom=0;right=0;overflow=hidden;opacity=50;" parent="bDf_QddjwAsiFpH7pg2h-130" vertex="1">
          <mxGeometry x="33" width="32" height="40" as="geometry">
            <mxRectangle width="32" height="40" as="alternateBounds" />
          </mxGeometry>
        </mxCell>
        <mxCell id="bDf_QddjwAsiFpH7pg2h-133" value="0.1" style="shape=partialRectangle;html=1;whiteSpace=wrap;connectable=0;top=0;left=0;bottom=0;right=0;overflow=hidden;opacity=50;" parent="bDf_QddjwAsiFpH7pg2h-130" vertex="1">
          <mxGeometry x="65" width="33" height="40" as="geometry">
            <mxRectangle width="33" height="40" as="alternateBounds" />
          </mxGeometry>
        </mxCell>
        <mxCell id="bDf_QddjwAsiFpH7pg2h-134" value="0.001" style="shape=partialRectangle;html=1;whiteSpace=wrap;connectable=0;top=0;left=0;bottom=0;right=0;overflow=hidden;opacity=50;" parent="bDf_QddjwAsiFpH7pg2h-130" vertex="1">
          <mxGeometry x="98" width="32" height="40" as="geometry">
            <mxRectangle width="32" height="40" as="alternateBounds" />
          </mxGeometry>
        </mxCell>
        <mxCell id="bDf_QddjwAsiFpH7pg2h-135" style="shape=partialRectangle;html=1;whiteSpace=wrap;collapsible=0;dropTarget=0;pointerEvents=0;fillColor=none;top=0;left=0;bottom=0;right=0;points=[[0,0.5],[1,0.5]];portConstraint=eastwest;" parent="bDf_QddjwAsiFpH7pg2h-124" vertex="1">
          <mxGeometry y="100" width="130" height="40" as="geometry" />
        </mxCell>
        <mxCell id="bDf_QddjwAsiFpH7pg2h-136" value="0.1" style="shape=partialRectangle;html=1;whiteSpace=wrap;connectable=0;top=0;left=0;bottom=0;right=0;overflow=hidden;opacity=50;" parent="bDf_QddjwAsiFpH7pg2h-135" vertex="1">
          <mxGeometry width="33" height="40" as="geometry">
            <mxRectangle width="33" height="40" as="alternateBounds" />
          </mxGeometry>
        </mxCell>
        <mxCell id="bDf_QddjwAsiFpH7pg2h-137" value="0" style="shape=partialRectangle;html=1;whiteSpace=wrap;connectable=0;top=0;left=0;bottom=0;right=0;overflow=hidden;opacity=50;" parent="bDf_QddjwAsiFpH7pg2h-135" vertex="1">
          <mxGeometry x="33" width="32" height="40" as="geometry">
            <mxRectangle width="32" height="40" as="alternateBounds" />
          </mxGeometry>
        </mxCell>
        <mxCell id="bDf_QddjwAsiFpH7pg2h-138" value="0.8" style="shape=partialRectangle;html=1;whiteSpace=wrap;connectable=0;top=0;left=0;bottom=0;right=0;overflow=hidden;opacity=50;" parent="bDf_QddjwAsiFpH7pg2h-135" vertex="1">
          <mxGeometry x="65" width="33" height="40" as="geometry">
            <mxRectangle width="33" height="40" as="alternateBounds" />
          </mxGeometry>
        </mxCell>
        <mxCell id="bDf_QddjwAsiFpH7pg2h-139" value="0" style="shape=partialRectangle;html=1;whiteSpace=wrap;connectable=0;top=0;left=0;bottom=0;right=0;overflow=hidden;opacity=50;" parent="bDf_QddjwAsiFpH7pg2h-135" vertex="1">
          <mxGeometry x="98" width="32" height="40" as="geometry">
            <mxRectangle width="32" height="40" as="alternateBounds" />
          </mxGeometry>
        </mxCell>
        <mxCell id="bDf_QddjwAsiFpH7pg2h-140" style="shape=partialRectangle;html=1;whiteSpace=wrap;collapsible=0;dropTarget=0;pointerEvents=0;fillColor=none;top=0;left=0;bottom=0;right=0;points=[[0,0.5],[1,0.5]];portConstraint=eastwest;" parent="bDf_QddjwAsiFpH7pg2h-124" vertex="1">
          <mxGeometry y="140" width="130" height="40" as="geometry" />
        </mxCell>
        <mxCell id="bDf_QddjwAsiFpH7pg2h-141" value="..." style="shape=partialRectangle;html=1;whiteSpace=wrap;connectable=0;top=0;left=0;bottom=0;right=0;overflow=hidden;opacity=50;" parent="bDf_QddjwAsiFpH7pg2h-140" vertex="1">
          <mxGeometry width="33" height="40" as="geometry">
            <mxRectangle width="33" height="40" as="alternateBounds" />
          </mxGeometry>
        </mxCell>
        <mxCell id="bDf_QddjwAsiFpH7pg2h-142" value="..." style="shape=partialRectangle;html=1;whiteSpace=wrap;connectable=0;top=0;left=0;bottom=0;right=0;overflow=hidden;opacity=50;" parent="bDf_QddjwAsiFpH7pg2h-140" vertex="1">
          <mxGeometry x="33" width="32" height="40" as="geometry">
            <mxRectangle width="32" height="40" as="alternateBounds" />
          </mxGeometry>
        </mxCell>
        <mxCell id="bDf_QddjwAsiFpH7pg2h-143" value="..." style="shape=partialRectangle;html=1;whiteSpace=wrap;connectable=0;top=0;left=0;bottom=0;right=0;overflow=hidden;opacity=50;" parent="bDf_QddjwAsiFpH7pg2h-140" vertex="1">
          <mxGeometry x="65" width="33" height="40" as="geometry">
            <mxRectangle width="33" height="40" as="alternateBounds" />
          </mxGeometry>
        </mxCell>
        <mxCell id="bDf_QddjwAsiFpH7pg2h-144" value="..." style="shape=partialRectangle;html=1;whiteSpace=wrap;connectable=0;top=0;left=0;bottom=0;right=0;overflow=hidden;opacity=50;" parent="bDf_QddjwAsiFpH7pg2h-140" vertex="1">
          <mxGeometry x="98" width="32" height="40" as="geometry">
            <mxRectangle width="32" height="40" as="alternateBounds" />
          </mxGeometry>
        </mxCell>
        <mxCell id="bDf_QddjwAsiFpH7pg2h-146" value="Patient features without time decay" style="text;html=1;strokeColor=none;fillColor=none;align=center;verticalAlign=middle;whiteSpace=wrap;rounded=0;container=1;fontStyle=1;fontSize=20;" parent="1" vertex="1">
          <mxGeometry x="20" y="830" width="420" height="30" as="geometry" />
        </mxCell>
        <mxCell id="bDf_QddjwAsiFpH7pg2h-148" value="Patient features with time decay `\delta`" style="text;html=1;strokeColor=none;fillColor=none;align=center;verticalAlign=middle;whiteSpace=wrap;rounded=0;container=1;fontStyle=1;fontSize=20;" parent="1" vertex="1">
          <mxGeometry y="1031" width="420" height="30" as="geometry" />
        </mxCell>
        <mxCell id="bDf_QddjwAsiFpH7pg2h-153" value="" style="rounded=1;whiteSpace=wrap;html=1;fillColor=#dae8fc;strokeColor=#6c8ebf;" parent="1" vertex="1">
          <mxGeometry x="90" y="1110.5" width="302" height="60" as="geometry" />
        </mxCell>
        <mxCell id="bDf_QddjwAsiFpH7pg2h-154" value="" style="group" parent="1" vertex="1" connectable="0">
          <mxGeometry x="308" y="1090.5" width="37" height="80" as="geometry" />
        </mxCell>
        <mxCell id="bDf_QddjwAsiFpH7pg2h-155" value="" style="endArrow=none;html=1;rounded=0;labelPosition=left;verticalLabelPosition=top;align=right;verticalAlign=bottom;" parent="bDf_QddjwAsiFpH7pg2h-154" edge="1">
          <mxGeometry width="50" height="50" relative="1" as="geometry">
            <mxPoint x="14" y="80" as="sourcePoint" />
            <mxPoint x="14" y="20" as="targetPoint" />
          </mxGeometry>
        </mxCell>
        <mxCell id="bDf_QddjwAsiFpH7pg2h-156" value="`T0`" style="text;html=1;strokeColor=none;fillColor=none;align=center;verticalAlign=middle;whiteSpace=wrap;rounded=0;fontStyle=1" parent="bDf_QddjwAsiFpH7pg2h-154" vertex="1">
          <mxGeometry x="7" y="1" width="30" height="10" as="geometry" />
        </mxCell>
        <mxCell id="bDf_QddjwAsiFpH7pg2h-157" value="" style="group" parent="1" vertex="1" connectable="0">
          <mxGeometry x="238" y="1090.5" width="30" height="80" as="geometry" />
        </mxCell>
        <mxCell id="bDf_QddjwAsiFpH7pg2h-158" value="" style="endArrow=none;html=1;rounded=0;labelPosition=left;verticalLabelPosition=top;align=right;verticalAlign=bottom;" parent="bDf_QddjwAsiFpH7pg2h-157" edge="1">
          <mxGeometry width="50" height="50" relative="1" as="geometry">
            <mxPoint x="14" y="80" as="sourcePoint" />
            <mxPoint x="14" y="20" as="targetPoint" />
          </mxGeometry>
        </mxCell>
        <mxCell id="bDf_QddjwAsiFpH7pg2h-159" value="`c_2`" style="text;html=1;strokeColor=none;fillColor=none;align=center;verticalAlign=middle;whiteSpace=wrap;rounded=0;" parent="bDf_QddjwAsiFpH7pg2h-157" vertex="1">
          <mxGeometry width="30" height="10" as="geometry" />
        </mxCell>
        <mxCell id="bDf_QddjwAsiFpH7pg2h-160" value="" style="group" parent="1" vertex="1" connectable="0">
          <mxGeometry x="279" y="1090.5" width="30" height="80" as="geometry" />
        </mxCell>
        <mxCell id="bDf_QddjwAsiFpH7pg2h-161" value="" style="endArrow=none;html=1;rounded=0;labelPosition=left;verticalLabelPosition=top;align=right;verticalAlign=bottom;" parent="bDf_QddjwAsiFpH7pg2h-160" edge="1">
          <mxGeometry width="50" height="50" relative="1" as="geometry">
            <mxPoint x="14" y="80" as="sourcePoint" />
            <mxPoint x="14" y="20" as="targetPoint" />
          </mxGeometry>
        </mxCell>
        <mxCell id="bDf_QddjwAsiFpH7pg2h-162" value="`c_3`" style="text;html=1;strokeColor=none;fillColor=none;align=center;verticalAlign=middle;whiteSpace=wrap;rounded=0;" parent="bDf_QddjwAsiFpH7pg2h-160" vertex="1">
          <mxGeometry width="30" height="10" as="geometry" />
        </mxCell>
        <mxCell id="bDf_QddjwAsiFpH7pg2h-163" value="" style="group" parent="1" vertex="1" connectable="0">
          <mxGeometry x="106" y="1090.5" width="30" height="80" as="geometry" />
        </mxCell>
        <mxCell id="bDf_QddjwAsiFpH7pg2h-164" value="" style="endArrow=none;html=1;rounded=0;labelPosition=left;verticalLabelPosition=top;align=right;verticalAlign=bottom;" parent="bDf_QddjwAsiFpH7pg2h-163" edge="1">
          <mxGeometry width="50" height="50" relative="1" as="geometry">
            <mxPoint x="14" y="80" as="sourcePoint" />
            <mxPoint x="14" y="20" as="targetPoint" />
          </mxGeometry>
        </mxCell>
        <mxCell id="bDf_QddjwAsiFpH7pg2h-165" value="`c_3`" style="text;html=1;strokeColor=none;fillColor=none;align=center;verticalAlign=middle;whiteSpace=wrap;rounded=0;" parent="bDf_QddjwAsiFpH7pg2h-163" vertex="1">
          <mxGeometry width="30" height="10" as="geometry" />
        </mxCell>
        <mxCell id="bDf_QddjwAsiFpH7pg2h-166" value="" style="group" parent="1" vertex="1" connectable="0">
          <mxGeometry x="345" y="1090.5" width="30" height="80" as="geometry" />
        </mxCell>
        <mxCell id="bDf_QddjwAsiFpH7pg2h-167" value="" style="endArrow=none;html=1;rounded=0;labelPosition=left;verticalLabelPosition=top;align=right;verticalAlign=bottom;" parent="bDf_QddjwAsiFpH7pg2h-166" edge="1">
          <mxGeometry width="50" height="50" relative="1" as="geometry">
            <mxPoint x="14" y="80" as="sourcePoint" />
            <mxPoint x="14" y="20" as="targetPoint" />
          </mxGeometry>
        </mxCell>
        <mxCell id="bDf_QddjwAsiFpH7pg2h-168" value="`c_4`" style="text;html=1;strokeColor=none;fillColor=none;align=center;verticalAlign=middle;whiteSpace=wrap;rounded=0;" parent="bDf_QddjwAsiFpH7pg2h-166" vertex="1">
          <mxGeometry width="30" height="10" as="geometry" />
        </mxCell>
        <mxCell id="bDf_QddjwAsiFpH7pg2h-169" value="" style="group" parent="1" vertex="1" connectable="0">
          <mxGeometry x="162" y="1091.5" width="30" height="80" as="geometry" />
        </mxCell>
        <mxCell id="bDf_QddjwAsiFpH7pg2h-170" value="" style="endArrow=none;html=1;rounded=0;labelPosition=left;verticalLabelPosition=top;align=right;verticalAlign=bottom;" parent="bDf_QddjwAsiFpH7pg2h-169" edge="1">
          <mxGeometry width="50" height="50" relative="1" as="geometry">
            <mxPoint x="14" y="80" as="sourcePoint" />
            <mxPoint x="14" y="20" as="targetPoint" />
          </mxGeometry>
        </mxCell>
        <mxCell id="bDf_QddjwAsiFpH7pg2h-171" value="`c_1`" style="text;html=1;strokeColor=none;fillColor=none;align=center;verticalAlign=middle;whiteSpace=wrap;rounded=0;" parent="bDf_QddjwAsiFpH7pg2h-169" vertex="1">
          <mxGeometry width="30" height="10" as="geometry" />
        </mxCell>
        <mxCell id="bDf_QddjwAsiFpH7pg2h-172" value="&lt;div&gt;Patient 1 &lt;br&gt;&lt;/div&gt;&lt;div&gt;event&lt;/div&gt;&lt;div&gt;sequence&lt;/div&gt;" style="text;html=1;strokeColor=none;fillColor=none;align=center;verticalAlign=middle;whiteSpace=wrap;rounded=0;" parent="1" vertex="1">
          <mxGeometry x="-20" y="1125.5" width="140" height="30" as="geometry" />
        </mxCell>
        <mxCell id="bDf_QddjwAsiFpH7pg2h-173" value="" style="endArrow=classic;html=1;rounded=0;fillColor=#dae8fc;strokeColor=#6c8ebf;exitX=0.78;exitY=1.153;exitDx=0;exitDy=0;exitPerimeter=0;" parent="1" source="bDf_QddjwAsiFpH7pg2h-172" edge="1">
          <mxGeometry width="50" height="50" relative="1" as="geometry">
            <mxPoint x="80" y="1161" as="sourcePoint" />
            <mxPoint x="417" y="1160.5" as="targetPoint" />
          </mxGeometry>
        </mxCell>
        <mxCell id="bDf_QddjwAsiFpH7pg2h-174" value="Time" style="edgeLabel;html=1;align=center;verticalAlign=middle;resizable=0;points=[];fontColor=#7EA6E0;container=1;fontStyle=1" parent="bDf_QddjwAsiFpH7pg2h-173" vertex="1" connectable="0">
          <mxGeometry x="0.9623" y="4" relative="1" as="geometry">
            <mxPoint y="15" as="offset" />
          </mxGeometry>
        </mxCell>
        <mxCell id="bDf_QddjwAsiFpH7pg2h-178" value="" style="endArrow=classic;startArrow=classic;html=1;rounded=0;" parent="1" edge="1">
          <mxGeometry width="50" height="50" relative="1" as="geometry">
            <mxPoint x="294" y="1192" as="sourcePoint" />
            <mxPoint x="320" y="1192" as="targetPoint" />
          </mxGeometry>
        </mxCell>
        <mxCell id="bDf_QddjwAsiFpH7pg2h-179" value="`\Delta t_{4}`" style="edgeLabel;html=1;align=center;verticalAlign=middle;resizable=0;points=[];" parent="bDf_QddjwAsiFpH7pg2h-178" vertex="1" connectable="0">
          <mxGeometry x="0.4004" y="-3" relative="1" as="geometry">
            <mxPoint x="-20" y="6" as="offset" />
          </mxGeometry>
        </mxCell>
        <mxCell id="bDf_QddjwAsiFpH7pg2h-181" value="" style="endArrow=classic;startArrow=classic;html=1;rounded=0;" parent="1" edge="1">
          <mxGeometry width="50" height="50" relative="1" as="geometry">
            <mxPoint x="120" y="1180" as="sourcePoint" />
            <mxPoint x="320" y="1180" as="targetPoint" />
          </mxGeometry>
        </mxCell>
        <mxCell id="bDf_QddjwAsiFpH7pg2h-182" value="`\Delta t_{3}`" style="edgeLabel;html=1;align=center;verticalAlign=middle;resizable=0;points=[];" parent="bDf_QddjwAsiFpH7pg2h-181" vertex="1" connectable="0">
          <mxGeometry x="0.4004" y="-3" relative="1" as="geometry">
            <mxPoint x="-20" y="6" as="offset" />
          </mxGeometry>
        </mxCell>
        <mxCell id="bDf_QddjwAsiFpH7pg2h-183" value="" style="endArrow=classic;startArrow=classic;html=1;rounded=0;" parent="1" edge="1">
          <mxGeometry width="50" height="50" relative="1" as="geometry">
            <mxPoint x="170" y="1090" as="sourcePoint" />
            <mxPoint x="320" y="1090" as="targetPoint" />
          </mxGeometry>
        </mxCell>
        <mxCell id="bDf_QddjwAsiFpH7pg2h-184" value="`\Delta t_{1}`" style="edgeLabel;html=1;align=center;verticalAlign=middle;resizable=0;points=[];" parent="bDf_QddjwAsiFpH7pg2h-183" vertex="1" connectable="0">
          <mxGeometry x="0.4004" y="-3" relative="1" as="geometry">
            <mxPoint x="-48" y="-13" as="offset" />
          </mxGeometry>
        </mxCell>
        <mxCell id="bDf_QddjwAsiFpH7pg2h-186" value="" style="endArrow=classic;startArrow=classic;html=1;rounded=0;" parent="1" edge="1">
          <mxGeometry width="50" height="50" relative="1" as="geometry">
            <mxPoint x="250" y="1080" as="sourcePoint" />
            <mxPoint x="320" y="1080" as="targetPoint" />
          </mxGeometry>
        </mxCell>
        <mxCell id="bDf_QddjwAsiFpH7pg2h-187" value="`\Delta t_{2}`" style="edgeLabel;html=1;align=center;verticalAlign=middle;resizable=0;points=[];" parent="bDf_QddjwAsiFpH7pg2h-186" vertex="1" connectable="0">
          <mxGeometry x="0.4004" y="-3" relative="1" as="geometry">
            <mxPoint x="-7" y="-13" as="offset" />
          </mxGeometry>
        </mxCell>
        <mxCell id="h7WnDE1LvG5gKxlHMCHW-1" value="" style="group" vertex="1" connectable="0" parent="1">
          <mxGeometry x="310" y="880" width="30" height="80" as="geometry" />
        </mxCell>
        <mxCell id="h7WnDE1LvG5gKxlHMCHW-2" value="" style="endArrow=none;html=1;rounded=0;labelPosition=left;verticalLabelPosition=top;align=right;verticalAlign=bottom;" edge="1" parent="h7WnDE1LvG5gKxlHMCHW-1">
          <mxGeometry width="50" height="50" relative="1" as="geometry">
            <mxPoint x="14" y="80" as="sourcePoint" />
            <mxPoint x="14" y="20" as="targetPoint" />
          </mxGeometry>
        </mxCell>
        <mxCell id="h7WnDE1LvG5gKxlHMCHW-3" value="`T0`" style="text;html=1;strokeColor=none;fillColor=none;align=center;verticalAlign=middle;whiteSpace=wrap;rounded=0;fontStyle=1" vertex="1" parent="h7WnDE1LvG5gKxlHMCHW-1">
          <mxGeometry width="30" height="10" as="geometry" />
        </mxCell>
      </root>
    </mxGraphModel>
  </diagram>
</mxfile>
